<svg xmlns="http://www.w3.org/2000/svg" width="99.777" height="27.916" viewBox="0 0 99.777 27.916">
    <defs>
        <style>
            .cls-1{fill:#171717}.cls-2{fill:url(#linear-gradient)}
        </style>
        <linearGradient id="linear-gradient" x1=".523" x2=".268" y1=".886" y2="-.064" gradientUnits="objectBoundingBox">
            <stop offset="0" stop-color="#ff8500"/>
            <stop offset="1" stop-color="#feb60f"/>
        </linearGradient>
    </defs>
    <g id="Logo" transform="translate(-232.549 -233.385)">
        <g id="YASSIR_Wordmark" data-name="YASSIR Wordmark" transform="translate(260.421 241.463)">
            <path id="Tracé_6360" d="M530.674 328.617l3.709-5.763h3.17v.12l-5.563 8.076v5.763h-2.632v-5.763l-5.364-8.076v-.12h3.131z" class="cls-1" data-name="Tracé 6360" transform="translate(-523.994 -322.376)"/>
            <path id="Tracé_6361" d="M657.528 334.18h-7.3l-1.2 2.632h-2.852l6.261-13.958h2.871l6.261 13.958H658.7zm-3.649-8.395l-2.592 5.942h5.184z" class="cls-1" data-name="Tracé 6361" transform="translate(-634.497 -322.376)"/>
            <path id="Tracé_6362" d="M818.438 321.7a4 4 0 0 0-3.31-1.555c-1.954 0-2.891.818-2.891 1.854 0 1.216 1.436 1.555 3.111 1.755 2.911.359 5.623 1.117 5.623 4.447 0 3.111-2.752 4.447-5.862 4.447-2.851 0-5.045-.877-6.082-3.43l2.194-1.137a3.978 3.978 0 0 0 3.928 2.213c1.655 0 3.21-.578 3.21-2.094 0-1.316-1.376-1.854-3.23-2.054-2.851-.339-5.484-1.1-5.484-4.227 0-2.871 2.832-4.048 5.4-4.068 2.173 0 4.427.618 5.484 2.772z" class="cls-1" data-name="Tracé 6362" transform="translate(-781.767 -317.851)"/>
            <path id="Tracé_6363" d="M956.263 321.7a4 4 0 0 0-3.31-1.555c-1.954 0-2.891.818-2.891 1.854 0 1.216 1.436 1.555 3.111 1.755 2.911.359 5.623 1.117 5.623 4.447 0 3.111-2.752 4.447-5.862 4.447-2.851 0-5.045-.877-6.082-3.43l2.193-1.137a3.978 3.978 0 0 0 3.928 2.213c1.655 0 3.21-.578 3.21-2.094 0-1.316-1.376-1.854-3.23-2.054-2.852-.339-5.484-1.1-5.484-4.227 0-2.871 2.831-4.048 5.4-4.068 2.174 0 4.427.618 5.484 2.772z" class="cls-1" data-name="Tracé 6363" transform="translate(-906.412 -317.851)"/>
            <path id="Tracé_6364" d="M1093.223 336.812v-13.958h2.612v13.958z" class="cls-1" data-name="Tracé 6364" transform="translate(-1038.786 -322.376)"/>
            <path id="Tracé_6365" d="M1158.964 336.624h-3.131l-4.068-4.666h-2.532v4.666h-2.633v-13.978c2.213 0 4.427.02 6.64.02 3.29.02 5.025 2.213 5.025 4.626a4.141 4.141 0 0 1-3.529 4.387l4.227 4.766zm-9.731-11.505v4.467h4.008a2.239 2.239 0 1 0 0-4.467z" class="cls-1" data-name="Tracé 6365" transform="translate(-1087.059 -322.187)"/>
        </g>
        <g id="Logo_Symbol" data-name="Logo Symbol" transform="translate(232.549 233.385)">
            <path id="Tracé_6366" d="M246.05 436.773a3.826 3.826 0 0 1-2.617 0l-10.883-3.961v4.653l10.883 3.961a3.826 3.826 0 0 0 2.617 0l10.883-3.961v-4.653z" class="cls-1" data-name="Tracé 6366" transform="translate(-232.551 -413.74)"/>
            <path id="Tracé_6367" d="M246.331 234.236a1.913 1.913 0 0 0-3.182 0l-10.6 15.894 10.883 3.961a3.826 3.826 0 0 0 2.617 0l10.883-3.961z" class="cls-2" data-name="Tracé 6367" transform="translate(-232.549 -233.385)"/>
        </g>
    </g>
</svg>
